<?xml version="1.0" encoding="UTF-8" standalone="no"?>
<!DOCTYPE svg PUBLIC "-//W3C//DTD SVG 1.1//EN"
 "http://www.w3.org/Graphics/SVG/1.1/DTD/svg11.dtd">
<!-- Generated by graphviz version 3.0.0 (20220226.1711)
 -->
<!-- Pages: 1 -->
<svg width="244pt" height="126pt"
 viewBox="0.00 0.00 244.00 125.64" xmlns="http://www.w3.org/2000/svg" xmlns:xlink="http://www.w3.org/1999/xlink">
<g id="graph0" class="graph" transform="scale(1 1) rotate(0) translate(4 121.64)">
<polygon fill="white" stroke="transparent" points="-4,4 -4,-121.64 240,-121.64 240,4 -4,4"/>
<!-- leftinp -->
<g id="node1" class="node">
<title>leftinp</title>
<polygon fill="lightgray" stroke="black" points="161,-117.64 120,-117.64 120,-99.64 161,-99.64 161,-117.64"/>
<text text-anchor="middle" x="140.5" y="-106.44" font-family="Times New Roman,serif" font-size="9.00">leftinp</text>
</g>
<!-- forward -->
<g id="node5" class="node">
<title>forward</title>
<ellipse fill="lightblue" stroke="black" cx="46.5" cy="-31.82" rx="31.64" ry="31.64"/>
<text text-anchor="middle" x="46.5" y="-29.62" font-family="Times New Roman,serif" font-size="9.00">forward</text>
</g>
<!-- leftinp&#45;&gt;forward -->
<g id="edge1" class="edge">
<title>leftinp&#45;&gt;forward</title>
<path fill="none" stroke="green" stroke-width="0.2" d="M130.44,-99.63C118.28,-89.96 97.22,-73.19 79.23,-58.87"/>
<polygon fill="green" stroke="green" stroke-width="0.2" points="81.23,-55.99 71.23,-52.5 76.87,-61.47 81.23,-55.99"/>
</g>
<!-- left -->
<g id="node6" class="node">
<title>left</title>
<ellipse fill="lightblue" stroke="black" cx="116.5" cy="-31.82" rx="20.51" ry="20.51"/>
<text text-anchor="middle" x="116.5" y="-29.62" font-family="Times New Roman,serif" font-size="9.00">left</text>
</g>
<!-- leftinp&#45;&gt;left -->
<g id="edge2" class="edge">
<title>leftinp&#45;&gt;left</title>
<path fill="none" stroke="green" stroke-width="0.27" d="M137.93,-99.63C134.99,-90.47 130.02,-74.95 125.6,-61.18"/>
<polygon fill="green" stroke="green" stroke-width="0.27" points="128.9,-60.03 122.52,-51.57 122.24,-62.16 128.9,-60.03"/>
</g>
<!-- right -->
<g id="node7" class="node">
<title>right</title>
<ellipse fill="lightblue" stroke="black" cx="178.5" cy="-31.82" rx="23.17" ry="23.17"/>
<text text-anchor="middle" x="178.5" y="-29.62" font-family="Times New Roman,serif" font-size="9.00">right</text>
</g>
<!-- leftinp&#45;&gt;right -->
<g id="edge3" class="edge">
<title>leftinp&#45;&gt;right</title>
<path fill="none" stroke="green" stroke-width="0.21" d="M144.57,-99.63C149.11,-90.69 156.73,-75.69 163.6,-62.16"/>
<polygon fill="green" stroke="green" stroke-width="0.21" points="166.78,-63.63 168.19,-53.13 160.54,-60.46 166.78,-63.63"/>
</g>
<!-- forwardinp -->
<g id="node2" class="node">
<title>forwardinp</title>
<polygon fill="lightgray" stroke="black" points="236,-117.64 179,-117.64 179,-99.64 236,-99.64 236,-117.64"/>
<text text-anchor="middle" x="207.5" y="-106.44" font-family="Times New Roman,serif" font-size="9.00">forwardinp</text>
</g>
<!-- forwardinp&#45;&gt;forward -->
<g id="edge4" class="edge">
<title>forwardinp&#45;&gt;forward</title>
<path fill="none" stroke="green" stroke-width="0.1" d="M178.56,-99.86C153.35,-92.45 116.27,-80.01 86.5,-63.64 83.98,-62.25 81.45,-60.72 78.95,-59.09"/>
<polygon fill="green" stroke="green" stroke-width="0.1" points="80.85,-56.15 70.65,-53.31 76.85,-61.89 80.85,-56.15"/>
</g>
<!-- forwardinp&#45;&gt;left -->
<g id="edge5" class="edge">
<title>forwardinp&#45;&gt;left</title>
<path fill="none" stroke="red" stroke-width="0.28" d="M194.87,-99.48C182.19,-91.06 162.32,-77.29 146.5,-63.64 143.41,-60.97 140.27,-58.04 137.24,-55.07"/>
<polygon fill="red" stroke="red" stroke-width="0.28" points="139.56,-52.44 130.05,-47.77 134.57,-57.35 139.56,-52.44"/>
</g>
<!-- forwardinp&#45;&gt;right -->
<g id="edge6" class="edge">
<title>forwardinp&#45;&gt;right</title>
<path fill="none" stroke="green" stroke-width="0.46" d="M204.4,-99.63C201.01,-90.9 195.38,-76.38 190.24,-63.11"/>
<polygon fill="green" stroke="green" stroke-width="0.46" points="193.49,-61.82 186.62,-53.76 186.97,-64.35 193.49,-61.82"/>
</g>
<!-- rightinp -->
<g id="node3" class="node">
<title>rightinp</title>
<polygon fill="lightgray" stroke="black" points="45,-117.64 0,-117.64 0,-99.64 45,-99.64 45,-117.64"/>
<text text-anchor="middle" x="22.5" y="-106.44" font-family="Times New Roman,serif" font-size="9.00">rightinp</text>
</g>
<!-- rightinp&#45;&gt;forward -->
<g id="edge7" class="edge">
<title>rightinp&#45;&gt;forward</title>
<path fill="none" stroke="red" stroke-width="0.22" d="M25.07,-99.63C27.25,-92.82 30.57,-82.5 33.94,-71.99"/>
<polygon fill="red" stroke="red" stroke-width="0.22" points="37.3,-72.97 37.02,-62.38 30.63,-70.83 37.3,-72.97"/>
</g>
<!-- rightinp&#45;&gt;left -->
<g id="edge8" class="edge">
<title>rightinp&#45;&gt;left</title>
<path fill="none" stroke="green" stroke-width="0.28" d="M36.32,-99.53C49.93,-91.26 71,-77.69 87.5,-63.64 90.56,-61.03 93.63,-58.14 96.58,-55.19"/>
<polygon fill="green" stroke="green" stroke-width="0.28" points="99.17,-57.55 103.55,-47.9 94.11,-52.71 99.17,-57.55"/>
</g>
<!-- rightinp&#45;&gt;right -->
<g id="edge9" class="edge">
<title>rightinp&#45;&gt;right</title>
<path fill="none" stroke="red" stroke-width="0.5" d="M45.2,-100.85C76.01,-91.43 129.21,-74.33 146.5,-63.64 149.71,-61.66 152.85,-59.31 155.85,-56.8"/>
<polygon fill="red" stroke="red" stroke-width="0.5" points="158.32,-59.29 163.36,-49.96 153.61,-54.11 158.32,-59.29"/>
</g>
<!-- speed -->
<g id="node4" class="node">
<title>speed</title>
<polygon fill="lightgray" stroke="black" points="101.5,-117.64 63.5,-117.64 63.5,-99.64 101.5,-99.64 101.5,-117.64"/>
<text text-anchor="middle" x="82.5" y="-106.44" font-family="Times New Roman,serif" font-size="9.00">speed</text>
</g>
<!-- speed&#45;&gt;forward -->
<g id="edge10" class="edge">
<title>speed&#45;&gt;forward</title>
<path fill="none" stroke="red" stroke-width="0.3" d="M78.65,-99.63C75.19,-92.45 69.85,-81.35 64.51,-70.25"/>
<polygon fill="red" stroke="red" stroke-width="0.3" points="67.55,-68.51 60.07,-61.01 61.25,-71.54 67.55,-68.51"/>
</g>
<!-- speed&#45;&gt;left -->
<g id="edge11" class="edge">
<title>speed&#45;&gt;left</title>
<path fill="none" stroke="red" stroke-width="0.37" d="M86.14,-99.63C90.43,-90.2 97.78,-74.03 104.17,-59.95"/>
<polygon fill="red" stroke="red" stroke-width="0.37" points="107.44,-61.21 108.39,-50.66 101.07,-58.31 107.44,-61.21"/>
</g>
<!-- speed&#45;&gt;right -->
<g id="edge12" class="edge">
<title>speed&#45;&gt;right</title>
<path fill="none" stroke="green" stroke-width="0.46" d="M95.7,-99.47C108.96,-91.06 129.79,-77.28 146.5,-63.64 149.42,-61.26 152.39,-58.66 155.29,-56.02"/>
<polygon fill="green" stroke="green" stroke-width="0.46" points="157.82,-58.44 162.7,-49.04 153.02,-53.35 157.82,-58.44"/>
</g>
</g>
</svg>
